<svg width="127" height="47" viewBox="0 0 127 47" fill="none" xmlns="http://www.w3.org/2000/svg">
<path d="M71.7968 37.427V37.248C71.7968 36.6407 71.885 36.0775 72.0615 35.5584C72.238 35.0341 72.4923 34.5799 72.8245 34.1958C73.1619 33.8065 73.572 33.5054 74.0547 33.2926C74.5427 33.0746 75.0929 32.9656 75.7054 32.9656C76.3231 32.9656 76.8733 33.0746 77.356 33.2926C77.844 33.5054 78.2566 33.8065 78.594 34.1958C78.9314 34.5799 79.1884 35.0341 79.3649 35.5584C79.5413 36.0775 79.6296 36.6407 79.6296 37.248V37.427C79.6296 38.0344 79.5413 38.5976 79.3649 39.1166C79.1884 39.6357 78.9314 40.0899 78.594 40.4792C78.2566 40.8633 77.8466 41.1644 77.3638 41.3824C76.8811 41.5952 76.3335 41.7016 75.721 41.7016C75.1033 41.7016 74.5505 41.5952 74.0625 41.3824C73.5798 41.1644 73.1697 40.8633 72.8323 40.4792C72.4949 40.0899 72.238 39.6357 72.0615 39.1166C71.885 38.5976 71.7968 38.0344 71.7968 37.427ZM73.6732 37.248V37.427C73.6732 37.806 73.7122 38.1641 73.79 38.5015C73.8679 38.8389 73.9899 39.1348 74.156 39.3891C74.3221 39.6435 74.5349 39.8433 74.7944 39.9887C75.054 40.134 75.3628 40.2067 75.721 40.2067C76.0687 40.2067 76.3698 40.134 76.6242 39.9887C76.8837 39.8433 77.0965 39.6435 77.2626 39.3891C77.4287 39.1348 77.5507 38.8389 77.6286 38.5015C77.7116 38.1641 77.7531 37.806 77.7531 37.427V37.248C77.7531 36.8742 77.7116 36.5213 77.6286 36.1891C77.5507 35.8517 77.4261 35.5532 77.2548 35.2937C77.0887 35.0341 76.8759 34.8317 76.6164 34.6863C76.362 34.5358 76.0584 34.4605 75.7054 34.4605C75.3524 34.4605 75.0462 34.5358 74.7866 34.6863C74.5323 34.8317 74.3221 35.0341 74.156 35.2937C73.9899 35.5532 73.8679 35.8517 73.79 36.1891C73.7122 36.5213 73.6732 36.8742 73.6732 37.248ZM83.4055 34.7253V41.5459H81.5291V33.1213H83.3199L83.4055 34.7253ZM85.9827 33.0668L85.9672 34.8109C85.853 34.7902 85.7284 34.7746 85.5934 34.7642C85.4637 34.7538 85.3339 34.7486 85.2041 34.7486C84.8823 34.7486 84.5994 34.7953 84.3554 34.8888C84.1115 34.977 83.9064 35.1068 83.7403 35.2781C83.5794 35.4442 83.4549 35.6466 83.3666 35.8854C83.2784 36.1242 83.2265 36.3915 83.2109 36.6874L82.7827 36.7185C82.7827 36.1891 82.8346 35.6985 82.9384 35.2469C83.0422 34.7953 83.1979 34.3983 83.4055 34.0557C83.6184 33.7131 83.8831 33.4458 84.1997 33.2537C84.5216 33.0616 84.8927 32.9656 85.3131 32.9656C85.4273 32.9656 85.5493 32.976 85.6791 32.9968C85.814 33.0175 85.9153 33.0409 85.9827 33.0668ZM91.9466 39.8563V35.8387C91.9466 35.5376 91.8921 35.2781 91.7831 35.0601C91.6741 34.8421 91.508 34.6734 91.2848 34.554C91.0668 34.4346 90.7917 34.3749 90.4594 34.3749C90.1532 34.3749 89.8885 34.4268 89.6653 34.5306C89.4421 34.6344 89.2682 34.7746 89.1436 34.9511C89.019 35.1276 88.9567 35.3274 88.9567 35.5506H87.0881C87.0881 35.2184 87.1685 34.8966 87.3294 34.5851C87.4903 34.2737 87.7239 33.996 88.0302 33.752C88.3364 33.508 88.7024 33.316 89.128 33.1758C89.5537 33.0357 90.0312 32.9656 90.5607 32.9656C91.1939 32.9656 91.7545 33.072 92.2425 33.2848C92.7356 33.4977 93.1223 33.8195 93.4026 34.2503C93.6881 34.676 93.8308 35.2106 93.8308 35.8543V39.5994C93.8308 39.9835 93.8568 40.3287 93.9087 40.6349C93.9658 40.936 94.0462 41.1981 94.1501 41.4213V41.5459H92.2269C92.1386 41.3435 92.0686 41.0865 92.0167 40.7751C91.9699 40.4584 91.9466 40.1522 91.9466 39.8563ZM92.2191 36.4226L92.2347 37.5828H90.8877C90.5399 37.5828 90.2336 37.6165 89.9689 37.684C89.7042 37.7463 89.4836 37.8397 89.3071 37.9643C89.1306 38.0889 88.9983 38.2394 88.91 38.4159C88.8218 38.5924 88.7776 38.7922 88.7776 39.0154C88.7776 39.2386 88.8296 39.4436 88.9334 39.6305C89.0372 39.8122 89.1877 39.9549 89.385 40.0588C89.5874 40.1626 89.8314 40.2145 90.1169 40.2145C90.501 40.2145 90.8358 40.1366 91.1213 39.9809C91.4119 39.82 91.6403 39.6253 91.8064 39.3969C91.9725 39.1633 92.0608 38.9427 92.0712 38.7351L92.6785 39.5682C92.6162 39.781 92.5098 40.0094 92.3593 40.2534C92.2087 40.4974 92.0115 40.731 91.7675 40.9542C91.5287 41.1722 91.2406 41.3512 90.9033 41.4914C90.571 41.6315 90.1869 41.7016 89.7509 41.7016C89.2007 41.7016 88.7102 41.5926 88.2793 41.3746C87.8485 41.1514 87.5111 40.8529 87.2671 40.4792C87.0232 40.1003 86.9012 39.672 86.9012 39.1945C86.9012 38.7481 86.9842 38.3536 87.1503 38.011C87.3216 37.6632 87.5708 37.3725 87.8978 37.139C88.23 36.9054 88.6349 36.7289 89.1124 36.6095C89.59 36.4849 90.135 36.4226 90.7475 36.4226H92.2191ZM97.9727 34.9199V41.5459H96.0963V33.1213H97.8637L97.9727 34.9199ZM97.6379 37.0222L97.0306 37.0144C97.0358 36.4174 97.1188 35.8698 97.2798 35.3715C97.4459 34.8732 97.6743 34.445 97.9649 34.0868C98.2608 33.7286 98.6138 33.4535 99.0238 33.2615C99.4339 33.0642 99.8907 32.9656 100.394 32.9656C100.799 32.9656 101.165 33.0227 101.492 33.1369C101.824 33.2459 102.107 33.425 102.341 33.6741C102.58 33.9233 102.761 34.2477 102.886 34.6474C103.01 35.0419 103.073 35.5272 103.073 36.1034V41.5459H101.188V36.0956C101.188 35.6907 101.129 35.3715 101.009 35.1379C100.895 34.8992 100.726 34.7305 100.503 34.6318C100.285 34.528 100.013 34.4761 99.6857 34.4761C99.3638 34.4761 99.0758 34.5436 98.8214 34.6786C98.5671 34.8135 98.3516 34.9978 98.1752 35.2314C98.0039 35.4649 97.8715 35.7349 97.7781 36.0411C97.6846 36.3474 97.6379 36.6744 97.6379 37.0222ZM110.703 33.1213H112.408V41.3123C112.408 42.0702 112.247 42.7138 111.925 43.2433C111.603 43.7727 111.154 44.175 110.578 44.4501C110.002 44.7304 109.335 44.8706 108.577 44.8706C108.255 44.8706 107.897 44.8238 107.503 44.7304C107.113 44.637 106.734 44.4865 106.366 44.2788C106.002 44.0764 105.699 43.8091 105.455 43.4769L106.335 42.3712C106.636 42.7294 106.968 42.9915 107.331 43.1576C107.695 43.3237 108.076 43.4068 108.476 43.4068C108.907 43.4068 109.273 43.3263 109.574 43.1654C109.88 43.0097 110.116 42.7787 110.282 42.4724C110.448 42.1662 110.531 41.7925 110.531 41.3512V35.0289L110.703 33.1213ZM104.98 37.427V37.2635C104.98 36.6251 105.058 36.0437 105.213 35.5195C105.369 34.99 105.592 34.5358 105.883 34.1569C106.174 33.7728 106.527 33.4795 106.942 33.2771C107.357 33.0694 107.827 32.9656 108.351 32.9656C108.896 32.9656 109.361 33.0642 109.745 33.2615C110.134 33.4587 110.459 33.7416 110.718 34.1102C110.978 34.4735 111.18 34.9095 111.326 35.4182C111.476 35.9217 111.588 36.4823 111.66 37.1V37.6217C111.593 38.2238 111.479 38.774 111.318 39.2724C111.157 39.7707 110.944 40.2015 110.679 40.5648C110.415 40.9282 110.088 41.2085 109.698 41.4057C109.314 41.603 108.86 41.7016 108.336 41.7016C107.822 41.7016 107.357 41.5952 106.942 41.3824C106.532 41.1696 106.179 40.8711 105.883 40.487C105.592 40.1029 105.369 39.6513 105.213 39.1322C105.058 38.6079 104.98 38.0396 104.98 37.427ZM106.856 37.2635V37.427C106.856 37.8112 106.893 38.1693 106.965 38.5015C107.043 38.8337 107.16 39.127 107.316 39.3814C107.477 39.6305 107.679 39.8278 107.923 39.9731C108.172 40.1133 108.465 40.1833 108.803 40.1833C109.244 40.1833 109.605 40.0899 109.885 39.903C110.171 39.7162 110.389 39.4644 110.539 39.1478C110.695 38.826 110.804 38.4678 110.866 38.0733V36.664C110.835 36.3578 110.77 36.0723 110.672 35.8075C110.578 35.5428 110.451 35.3118 110.29 35.1146C110.129 34.9121 109.927 34.7564 109.683 34.6474C109.439 34.5332 109.151 34.4761 108.818 34.4761C108.481 34.4761 108.188 34.5488 107.939 34.6941C107.689 34.8395 107.484 35.0393 107.324 35.2937C107.168 35.548 107.051 35.8439 106.973 36.1813C106.895 36.5187 106.856 36.8794 106.856 37.2635ZM118.387 41.7016C117.764 41.7016 117.201 41.6004 116.698 41.398C116.199 41.1903 115.774 40.9022 115.421 40.5337C115.073 40.1652 114.806 39.7317 114.619 39.2334C114.432 38.7351 114.338 38.1979 114.338 37.6217V37.3103C114.338 36.651 114.435 36.0541 114.627 35.5195C114.819 34.9848 115.086 34.528 115.429 34.1491C115.771 33.765 116.176 33.4717 116.643 33.2693C117.11 33.0668 117.616 32.9656 118.161 32.9656C118.764 32.9656 119.29 33.0668 119.742 33.2693C120.194 33.4717 120.567 33.7572 120.863 34.1257C121.164 34.4891 121.388 34.9225 121.533 35.426C121.683 35.9295 121.759 36.4849 121.759 37.0922V37.8942H115.249V36.5472H119.906V36.3993C119.895 36.0619 119.828 35.7452 119.703 35.4494C119.584 35.1535 119.399 34.9147 119.15 34.7331C118.901 34.5514 118.569 34.4605 118.154 34.4605C117.842 34.4605 117.565 34.528 117.321 34.663C117.082 34.7927 116.882 34.9822 116.721 35.2314C116.56 35.4805 116.436 35.7816 116.347 36.1346C116.264 36.4823 116.223 36.8742 116.223 37.3103V37.6217C116.223 37.9902 116.272 38.3328 116.371 38.6495C116.474 38.9609 116.625 39.2334 116.822 39.467C117.02 39.7006 117.258 39.8849 117.539 40.0198C117.819 40.1496 118.138 40.2145 118.496 40.2145C118.948 40.2145 119.35 40.1236 119.703 39.942C120.056 39.7603 120.362 39.5033 120.622 39.1711L121.611 40.1288C121.429 40.3936 121.193 40.6479 120.902 40.8919C120.612 41.1306 120.256 41.3253 119.835 41.4758C119.42 41.6264 118.937 41.7016 118.387 41.7016Z" fill="white"/>
<path d="M121.699 30.3603V33.0811H121.233V30.3603H121.699ZM122.553 30.3603V30.734H120.387V30.3603H122.553ZM123.421 30.3603H123.839L124.626 32.4588L125.411 30.3603H125.83L124.791 33.0811H124.458L123.421 30.3603ZM123.23 30.3603H123.628L123.697 32.1766V33.0811H123.23V30.3603ZM125.622 30.3603H126.022V33.0811H125.553V32.1766L125.622 30.3603Z" fill="white"/>
<path d="M57.3149 11.4325V12.0764C57.3149 13.0207 57.189 13.8706 56.9372 14.6261C56.6854 15.3759 56.3277 16.014 55.8641 16.5406C55.4005 17.0671 54.8482 17.4706 54.2072 17.751C53.5662 18.0315 52.8536 18.1717 52.0696 18.1717C51.2969 18.1717 50.5872 18.0315 49.9405 17.751C49.2995 17.4706 48.7443 17.0671 48.275 16.5406C47.8057 16.014 47.4423 15.3759 47.1847 14.6261C46.9272 13.8706 46.7984 13.0207 46.7984 12.0764V11.4325C46.7984 10.4825 46.9272 9.63255 47.1847 8.8828C47.4423 8.13305 47.8028 7.4949 48.2664 6.96836C48.73 6.43609 49.2823 6.02974 49.9233 5.74929C50.57 5.46885 51.2797 5.32863 52.0524 5.32863C52.8365 5.32863 53.549 5.46885 54.19 5.74929C54.831 6.02974 55.3833 6.43609 55.8469 6.96836C56.3162 7.4949 56.6768 8.13305 56.9286 8.8828C57.1862 9.63255 57.3149 10.4825 57.3149 11.4325ZM54.9283 12.0764V11.4154C54.9283 10.7343 54.8654 10.1362 54.7395 9.6211C54.6136 9.10028 54.4275 8.66245 54.1814 8.30761C53.9353 7.95276 53.632 7.68663 53.2714 7.50921C52.9109 7.32606 52.5045 7.23449 52.0524 7.23449C51.5945 7.23449 51.1882 7.32606 50.8333 7.50921C50.4842 7.68663 50.1866 7.95276 49.9405 8.30761C49.6944 8.66245 49.5055 9.10028 49.3739 9.6211C49.248 10.1362 49.185 10.7343 49.185 11.4154V12.0764C49.185 12.7517 49.248 13.3498 49.3739 13.8706C49.5055 14.3915 49.6944 14.8322 49.9405 15.1927C50.1923 15.5476 50.4956 15.8166 50.8505 15.9997C51.2053 16.1829 51.6117 16.2744 52.0696 16.2744C52.5274 16.2744 52.9338 16.1829 53.2886 15.9997C53.6435 15.8166 53.9411 15.5476 54.1814 15.1927C54.4275 14.8322 54.6136 14.3915 54.7395 13.8706C54.8654 13.3498 54.9283 12.7517 54.9283 12.0764ZM63.4013 18H60.7057L60.7228 16.1457H63.4013C64.1282 16.1457 64.7377 15.9854 65.2299 15.6649C65.7221 15.3387 66.0941 14.8722 66.346 14.2656C66.5978 13.6532 66.7237 12.9206 66.7237 12.0678V11.4239C66.7237 10.7658 66.6522 10.1848 66.5091 9.6812C66.366 9.17755 66.1542 8.75402 65.8738 8.41063C65.5991 8.06723 65.2585 7.80682 64.8522 7.6294C64.4458 7.45197 63.9794 7.36326 63.4528 7.36326H60.6541V5.50033H63.4528C64.2884 5.50033 65.0496 5.64055 65.7364 5.92099C66.4289 6.20143 67.027 6.60493 67.5307 7.13147C68.0401 7.65229 68.4292 8.27613 68.6982 9.00299C68.9729 9.72984 69.1103 10.5426 69.1103 11.4411V12.0678C69.1103 12.9606 68.9729 13.7733 68.6982 14.5059C68.4292 15.2328 68.0401 15.8566 67.5307 16.3774C67.027 16.8983 66.4261 17.2989 65.7278 17.5793C65.0296 17.8598 64.2541 18 63.4013 18ZM62.0277 5.50033V18H59.6669V5.50033H62.0277ZM78.7852 13.8878H81.146C81.0831 14.7234 80.8513 15.4646 80.4507 16.1113C80.05 16.7523 79.492 17.256 78.7766 17.6223C78.0612 17.9886 77.1941 18.1717 76.1754 18.1717C75.3913 18.1717 74.6844 18.0343 74.0549 17.7596C73.431 17.4792 72.8959 17.0814 72.4495 16.5663C72.0088 16.0455 71.6711 15.4217 71.4365 14.6948C71.2018 13.9622 71.0845 13.1409 71.0845 12.2309V11.278C71.0845 10.368 71.2047 9.5467 71.4451 8.81412C71.6854 8.08154 72.0288 7.4577 72.4753 6.9426C72.9274 6.42178 73.4683 6.02115 74.0978 5.74071C74.7331 5.46027 75.4428 5.32005 76.2269 5.32005C77.2456 5.32005 78.107 5.50892 78.8109 5.88665C79.5149 6.25867 80.0615 6.7709 80.4507 7.42336C80.8398 8.07581 81.0745 8.82556 81.1546 9.67261H78.7938C78.748 9.14607 78.6335 8.69965 78.4504 8.33336C78.273 7.96707 78.004 7.68949 77.6434 7.50062C77.2885 7.30603 76.8164 7.20873 76.2269 7.20873C75.769 7.20873 75.3655 7.29458 75.0164 7.46628C74.673 7.63798 74.3868 7.89553 74.1579 8.23893C73.929 8.5766 73.7573 9.00012 73.6428 9.5095C73.5283 10.0131 73.4711 10.5969 73.4711 11.2608V12.2309C73.4711 12.8662 73.5226 13.4357 73.6256 13.9393C73.7287 14.443 73.8889 14.8694 74.1064 15.2185C74.3239 15.5676 74.6043 15.8337 74.9477 16.0169C75.2911 16.2 75.7003 16.2916 76.1754 16.2916C76.7534 16.2916 77.2227 16.2 77.5833 16.0169C77.9496 15.8337 78.2272 15.5647 78.416 15.2099C78.6106 14.8551 78.7337 14.4144 78.7852 13.8878Z" fill="#1B1816"/>
<path d="M55.4778 34.2443V36.0986H48.833V34.2443H55.4778ZM49.5542 23.599V36.0986H47.1933V23.599H49.5542ZM54.6107 28.7585V30.5699H48.833V28.7585H54.6107ZM55.452 23.599V25.4619H48.833V23.599H55.452ZM66.2216 29.6342V34.5018C66.0385 34.7365 65.7494 34.9912 65.3545 35.2659C64.9654 35.5406 64.456 35.7781 63.8264 35.9784C63.1969 36.173 62.4242 36.2703 61.5085 36.2703C60.713 36.2703 59.9861 36.1387 59.3279 35.8754C58.6697 35.6064 58.1031 35.2144 57.6281 34.6993C57.1531 34.1842 56.7868 33.5546 56.5292 32.8106C56.2717 32.0666 56.1429 31.2167 56.1429 30.2609V29.4367C56.1429 28.4809 56.2631 27.631 56.5035 26.887C56.7496 26.143 57.0987 25.5134 57.5508 24.9983C58.0087 24.4832 58.5553 24.0912 59.1906 23.8222C59.8316 23.5532 60.547 23.4187 61.3368 23.4187C62.3956 23.4187 63.2655 23.5932 63.9466 23.9424C64.6334 24.2915 65.16 24.7722 65.5262 25.3846C65.8925 25.9913 66.1215 26.6895 66.213 27.4794H63.9123C63.8493 27.0444 63.7234 26.6638 63.5345 26.3376C63.3457 26.0056 63.0767 25.7481 62.7276 25.5649C62.3842 25.376 61.9377 25.2816 61.3883 25.2816C60.9247 25.2816 60.5155 25.3732 60.1607 25.5563C59.8058 25.7395 59.5082 26.0056 59.2678 26.3547C59.0274 26.7039 58.8443 27.136 58.7184 27.6511C58.5982 28.1662 58.5381 28.7556 58.5381 29.4196V30.2609C58.5381 30.9305 58.6068 31.5257 58.7441 32.0465C58.8815 32.5616 59.079 32.9966 59.3365 33.3515C59.5998 33.7006 59.9231 33.9667 60.3066 34.1499C60.6958 34.3273 61.1365 34.416 61.6287 34.416C62.0751 34.416 62.4442 34.3788 62.7361 34.3044C63.0337 34.2243 63.2713 34.1298 63.4487 34.0211C63.6261 33.9123 63.7635 33.8065 63.8608 33.7034V31.3597H61.3797V29.6342H66.2216ZM69.2648 23.599L72.012 29.4281L74.7763 23.599H77.369L73.2139 31.5229V36.0986H70.8187V31.5229L66.655 23.599H69.2648ZM82.7816 31.54H79.5622V29.6857H82.7816C83.3081 29.6857 83.7345 29.5998 84.0607 29.4281C84.3927 29.2507 84.6359 29.0103 84.7904 28.707C84.945 28.3979 85.0222 28.046 85.0222 27.6511C85.0222 27.2676 84.945 26.9099 84.7904 26.5779C84.6359 26.246 84.3927 25.977 84.0607 25.771C83.7345 25.5649 83.3081 25.4619 82.7816 25.4619H80.3349V36.0986H77.974V23.599H82.7816C83.7545 23.599 84.5844 23.7735 85.2712 24.1226C85.9637 24.466 86.4903 24.9439 86.8508 25.5563C87.2171 26.163 87.4003 26.8555 87.4003 27.6339C87.4003 28.4409 87.2171 29.1362 86.8508 29.72C86.4903 30.3038 85.9637 30.7531 85.2712 31.0679C84.5844 31.3826 83.7545 31.54 82.7816 31.54ZM93.9718 23.599V36.0986H91.6196V23.599H93.9718ZM97.8522 23.599V25.4619H87.7821V23.599H97.8522Z" fill="black"/>
<rect y="1" width="39" height="39" fill="#FF6600"/>
<path d="M2.44362 33.8017V33.6864C2.44362 33.2955 2.50041 32.933 2.614 32.5989C2.72759 32.2615 2.89129 31.9692 3.10511 31.722C3.32227 31.4714 3.58619 31.2776 3.8969 31.1407C4.21094 31.0003 4.56507 30.9302 4.95929 30.9302C5.35686 30.9302 5.71099 31.0003 6.02169 31.1407C6.33573 31.2776 6.60133 31.4714 6.81849 31.722C7.03564 31.9692 7.20102 32.2615 7.31461 32.5989C7.4282 32.933 7.48499 33.2955 7.48499 33.6864V33.8017C7.48499 34.1925 7.4282 34.555 7.31461 34.8891C7.20102 35.2232 7.03564 35.5155 6.81849 35.7661C6.60133 36.0133 6.3374 36.2071 6.0267 36.3474C5.716 36.4844 5.36354 36.5529 4.96932 36.5529C4.57175 36.5529 4.21595 36.4844 3.90191 36.3474C3.59121 36.2071 3.32728 36.0133 3.11012 35.7661C2.89296 35.5155 2.72759 35.2232 2.614 34.8891C2.50041 34.555 2.44362 34.1925 2.44362 33.8017ZM3.65134 33.6864V33.8017C3.65134 34.0455 3.6764 34.2761 3.72651 34.4932C3.77662 34.7104 3.85513 34.9008 3.96204 35.0645C4.06895 35.2282 4.20593 35.3568 4.37297 35.4504C4.54001 35.5439 4.7388 35.5907 4.96932 35.5907C5.19315 35.5907 5.38692 35.5439 5.55063 35.4504C5.71767 35.3568 5.85465 35.2282 5.96155 35.0645C6.06846 34.9008 6.14697 34.7104 6.19709 34.4932C6.25054 34.2761 6.27727 34.0455 6.27727 33.8017V33.6864C6.27727 33.4459 6.25054 33.2187 6.19709 33.0049C6.14697 32.7877 6.06679 32.5956 5.95654 32.4286C5.84964 32.2615 5.71266 32.1312 5.54562 32.0377C5.38191 31.9408 5.18647 31.8923 4.95929 31.8923C4.73211 31.8923 4.535 31.9408 4.36796 32.0377C4.20426 32.1312 4.06895 32.2615 3.96204 32.4286C3.85513 32.5956 3.77662 32.7877 3.72651 33.0049C3.6764 33.2187 3.65134 33.4459 3.65134 33.6864ZM9.91528 32.0627V36.4526H8.70755V31.0304H9.86015L9.91528 32.0627ZM11.574 30.9953L11.564 32.1179C11.4905 32.1045 11.4103 32.0945 11.3235 32.0878C11.2399 32.0811 11.1564 32.0778 11.0729 32.0778C10.8658 32.0778 10.6837 32.1078 10.5267 32.168C10.3696 32.2248 10.2377 32.3083 10.1308 32.4185C10.0272 32.5254 9.94701 32.6557 9.89022 32.8094C9.83342 32.9631 9.80002 33.1352 9.78999 33.3256L9.51437 33.3456C9.51437 33.0049 9.54778 32.6891 9.6146 32.3985C9.68141 32.1078 9.78164 31.8523 9.91528 31.6318C10.0523 31.4113 10.2226 31.2392 10.4264 31.1156C10.6336 30.992 10.8724 30.9302 11.143 30.9302C11.2165 30.9302 11.2951 30.9369 11.3786 30.9502C11.4654 30.9636 11.5306 30.9786 11.574 30.9953ZM15.4125 35.3652V32.7793C15.4125 32.5856 15.3774 32.4185 15.3072 32.2782C15.2371 32.1379 15.1302 32.0293 14.9865 31.9525C14.8462 31.8756 14.6691 31.8372 14.4553 31.8372C14.2582 31.8372 14.0878 31.8706 13.9442 31.9374C13.8005 32.0043 13.6886 32.0945 13.6084 32.2081C13.5282 32.3216 13.4881 32.4503 13.4881 32.5939H12.2854C12.2854 32.3801 12.3372 32.173 12.4408 31.9725C12.5443 31.7721 12.6947 31.5933 12.8918 31.4363C13.0889 31.2793 13.3244 31.1557 13.5984 31.0655C13.8723 30.9753 14.1797 30.9302 14.5205 30.9302C14.9281 30.9302 15.2889 30.9987 15.6029 31.1356C15.9203 31.2726 16.1692 31.4797 16.3496 31.757C16.5333 32.031 16.6252 32.3751 16.6252 32.7894V35.1998C16.6252 35.447 16.6419 35.6692 16.6753 35.8663C16.7121 36.0601 16.7639 36.2288 16.8307 36.3725V36.4526H15.5929C15.5361 36.3223 15.491 36.157 15.4576 35.9565C15.4275 35.7527 15.4125 35.5556 15.4125 35.3652ZM15.5879 33.1552L15.5979 33.9019H14.7309C14.5071 33.9019 14.31 33.9236 14.1396 33.967C13.9692 34.0071 13.8272 34.0673 13.7136 34.1474C13.6001 34.2276 13.5149 34.3245 13.4581 34.4381C13.4013 34.5517 13.3729 34.6803 13.3729 34.824C13.3729 34.9676 13.4063 35.0996 13.4731 35.2199C13.5399 35.3368 13.6368 35.4287 13.7638 35.4955C13.8941 35.5623 14.0511 35.5957 14.2348 35.5957C14.482 35.5957 14.6975 35.5456 14.8813 35.4454C15.0684 35.3418 15.2154 35.2165 15.3223 35.0695C15.4292 34.9192 15.486 34.7772 15.4927 34.6436L15.8835 35.1798C15.8435 35.3167 15.775 35.4637 15.6781 35.6208C15.5812 35.7778 15.4542 35.9281 15.2972 36.0718C15.1435 36.2121 14.9581 36.3274 14.741 36.4176C14.5271 36.5078 14.2799 36.5529 13.9993 36.5529C13.6452 36.5529 13.3294 36.4827 13.0522 36.3424C12.7749 36.1987 12.5577 36.0066 12.4007 35.7661C12.2437 35.5222 12.1652 35.2466 12.1652 34.9392C12.1652 34.6519 12.2186 34.398 12.3255 34.1775C12.4358 33.9537 12.5961 33.7666 12.8066 33.6162C13.0204 33.4659 13.281 33.3523 13.5884 33.2755C13.8957 33.1953 14.2465 33.1552 14.6407 33.1552H15.5879ZM19.291 32.188V36.4526H18.0833V31.0304H19.2209L19.291 32.188ZM19.0755 33.5411L18.6847 33.5361C18.688 33.1519 18.7415 32.7994 18.845 32.4787C18.9519 32.1579 19.0989 31.8823 19.286 31.6518C19.4764 31.4213 19.7036 31.2442 19.9676 31.1206C20.2315 30.9937 20.5255 30.9302 20.8495 30.9302C21.1101 30.9302 21.3457 30.9669 21.5561 31.0404C21.77 31.1106 21.952 31.2258 22.1024 31.3862C22.2561 31.5466 22.373 31.7554 22.4532 32.0126C22.5333 32.2665 22.5734 32.5789 22.5734 32.9497V36.4526H21.3607V32.9447C21.3607 32.6841 21.3223 32.4787 21.2454 32.3283C21.1719 32.1747 21.0634 32.0661 20.9197 32.0026C20.7794 31.9358 20.604 31.9024 20.3935 31.9024C20.1864 31.9024 20.001 31.9458 19.8373 32.0327C19.6736 32.1195 19.5349 32.2381 19.4213 32.3885C19.3111 32.5388 19.2259 32.7125 19.1657 32.9096C19.1056 33.1068 19.0755 33.3172 19.0755 33.5411ZM27.4843 31.0304H28.5818V36.3023C28.5818 36.7901 28.4782 37.2043 28.2711 37.5451C28.064 37.8859 27.775 38.1448 27.4041 38.3219C27.0333 38.5023 26.604 38.5925 26.1162 38.5925C25.9091 38.5925 25.6786 38.5624 25.4247 38.5023C25.1741 38.4421 24.9302 38.3452 24.693 38.2116C24.4592 38.0813 24.2637 37.9093 24.1067 37.6954L24.673 36.9838C24.8667 37.2144 25.0806 37.3831 25.3144 37.49C25.5483 37.5969 25.7938 37.6503 26.0511 37.6503C26.3284 37.6503 26.5639 37.5986 26.7577 37.495C26.9548 37.3948 27.1068 37.2461 27.2137 37.049C27.3206 36.8519 27.3741 36.6113 27.3741 36.3274V32.2582L27.4843 31.0304ZM23.801 33.8017V33.6964C23.801 33.2855 23.8511 32.9113 23.9513 32.5739C24.0516 32.2331 24.1952 31.9408 24.3823 31.6969C24.5694 31.4497 24.7966 31.2609 25.0639 31.1306C25.3311 30.997 25.6335 30.9302 25.9709 30.9302C26.3217 30.9302 26.6207 30.9937 26.8679 31.1206C27.1185 31.2476 27.3273 31.4296 27.4943 31.6668C27.6614 31.9007 27.7917 32.1813 27.8852 32.5087C27.9821 32.8328 28.0539 33.1936 28.1007 33.5912V33.9269C28.0573 34.3145 27.9838 34.6686 27.8802 34.9893C27.7766 35.3101 27.6397 35.5874 27.4693 35.8212C27.2989 36.0551 27.0884 36.2355 26.8379 36.3624C26.5906 36.4894 26.2983 36.5529 25.9609 36.5529C25.6301 36.5529 25.3311 36.4844 25.0639 36.3474C24.7999 36.2104 24.5727 36.0183 24.3823 35.7711C24.1952 35.5239 24.0516 35.2332 23.9513 34.8991C23.8511 34.5617 23.801 34.1959 23.801 33.8017ZM25.0087 33.6964V33.8017C25.0087 34.0489 25.0321 34.2794 25.0789 34.4932C25.129 34.707 25.2042 34.8958 25.3044 35.0595C25.408 35.2199 25.5383 35.3468 25.6953 35.4404C25.8556 35.5306 26.0444 35.5757 26.2616 35.5757C26.5455 35.5757 26.7777 35.5155 26.9581 35.3953C27.1419 35.275 27.2822 35.1129 27.3791 34.9092C27.4793 34.702 27.5495 34.4715 27.5896 34.2176V33.3105C27.5695 33.1134 27.5277 32.9297 27.4643 32.7593C27.4041 32.5889 27.3223 32.4402 27.2187 32.3133C27.1152 32.183 26.9849 32.0828 26.8278 32.0126C26.6708 31.9391 26.4854 31.9024 26.2716 31.9024C26.0544 31.9024 25.8657 31.9491 25.7053 32.0427C25.5449 32.1362 25.413 32.2649 25.3094 32.4286C25.2092 32.5923 25.134 32.7827 25.0839 32.9998C25.0338 33.217 25.0087 33.4492 25.0087 33.6964ZM32.4303 36.5529C32.0294 36.5529 31.6669 36.4877 31.3428 36.3574C31.0221 36.2238 30.7481 36.0384 30.521 35.8012C30.2971 35.564 30.1251 35.285 30.0048 34.9643C29.8845 34.6436 29.8244 34.2978 29.8244 33.9269V33.7265C29.8244 33.3022 29.8862 32.918 30.0098 32.5739C30.1334 32.2298 30.3055 31.9358 30.526 31.6919C30.7465 31.4447 31.0071 31.2559 31.3077 31.1256C31.6084 30.9953 31.9342 30.9302 32.2849 30.9302C32.6725 30.9302 33.0116 30.9953 33.3022 31.1256C33.5929 31.2559 33.8334 31.4397 34.0239 31.6769C34.2176 31.9107 34.3613 32.1897 34.4548 32.5137C34.5517 32.8378 34.6002 33.1953 34.6002 33.5862V34.1023H30.4107V33.2354H33.4075V33.1402C33.4008 32.923 33.3574 32.7192 33.2772 32.5288C33.2003 32.3384 33.0817 32.1847 32.9214 32.0677C32.761 31.9508 32.5472 31.8923 32.2799 31.8923C32.0795 31.8923 31.9007 31.9358 31.7437 32.0226C31.59 32.1062 31.4614 32.2281 31.3579 32.3885C31.2543 32.5488 31.1741 32.7426 31.1173 32.9698C31.0639 33.1936 31.0371 33.4459 31.0371 33.7265V33.9269C31.0371 34.1641 31.0689 34.3846 31.1323 34.5884C31.1992 34.7889 31.2961 34.9643 31.423 35.1146C31.55 35.265 31.7036 35.3836 31.884 35.4704C32.0645 35.5539 32.2699 35.5957 32.5004 35.5957C32.7911 35.5957 33.05 35.5372 33.2772 35.4203C33.5044 35.3034 33.7015 35.138 33.8685 34.9242L34.505 35.5406C34.388 35.711 34.236 35.8747 34.0489 36.0317C33.8618 36.1854 33.633 36.3106 33.3624 36.4075C33.0951 36.5044 32.7844 36.5529 32.4303 36.5529Z" fill="white"/>
<path d="M34.5615 29.828V31.5791H34.262V29.828H34.5615ZM35.1112 29.828V30.0685H33.7172V29.828H35.1112ZM35.67 29.828H35.9394L36.4458 31.1786L36.9509 29.828H37.2203L36.5516 31.5791H36.3375L35.67 29.828ZM35.5473 29.828H35.8035L35.848 30.997V31.5791H35.5473V29.828ZM37.0868 29.828H37.3442V31.5791H37.0423V30.997L37.0868 29.828Z" fill="white"/>
</svg>
